<svg viewBox="0 0 43 23">
    <rect x="0.346" y="0.346" width="42" height="22" style="fill:#fff;"/>
    <g fill="#002a7e">
        <path d="M17.926,7.065l-12.722,-6.719l12.722,0l0,6.719Z"/>
        <path d="M9.764,7.757l-9.418,-4.879l0,4.879l9.418,-0Z"/>
        <path d="M24.766,7.614l14.395,-7.268l-14.395,0l0,7.268Z"/>
        <path d="M32.929,7.614l9.417,-4.857l0,4.857l-9.417,0Z"/>
        <path d="M24.766,15.627l12.723,6.719l-12.723,0l0,-6.719Z"/>
        <path d="M32.929,14.936l9.417,4.878l0,-4.878l-9.417,-0Z"/>
        <path d="M17.926,14.936l-12.722,7.41l12.722,0l0,-7.41Z"/>
        <path d="M9.764,15.079l-9.418,4.857l0,-4.857l9.418,-0Z"/>
    </g>
    <g fill="#d52126">
        <path d="M17.926,14.936l-3.849,-0l-13.731,7.41l4.858,0l12.722,-7.41Z"/>
        <path d="M24.766,7.614l3.044,0l14.536,-7.268l-3.185,0l-14.395,7.268Z"/>
        <path d="M14.427,7.757l-14.081,-7.411l0,2.532l9.418,4.879l4.663,-0Z"/>
        <path d="M28.265,14.936l14.081,7.41l0,-2.532l-9.417,-4.878l-4.664,-0Z"/>
        <path d="M23.352,0.346l-4.009,0l-0,8.803l-18.997,0l0,4.422l18.997,0l-0,8.775l4.009,0l-0,-8.775l18.994,0l0,-4.422l-18.994,0l-0,-8.803Z"/>
    </g>
</svg>