<svg width="100%" height="40" fill="#ffffff" viewBox="0 0 589.1 114.54">
							<path d="M677.65,566.61v-84h91.51v10.55H688.78v62.41c6.23,0,12.32.12,18.38-.12,1,0,2.1-1.53,2.72-2.59,7.17-12.25,14.26-24.54,21.37-36.82.93-1.59,1.87-3.17,3.15-5.35l32.42,55.9c-4.3,0-8.09.2-11.83-.13-1-.09-1.94-1.73-2.59-2.84-5.92-10.09-11.76-20.22-17.94-30.88-.84,1.34-1.49,2.31-2.07,3.32-5.44,9.37-10.82,18.76-16.33,28.08-.61,1-1.88,2.37-2.86,2.38C701.48,566.66,689.76,566.61,677.65,566.61Z" transform="translate(-677.65 -482.57)"/>
							<path d="M780.11,504c3.4,0,6.14,0,8.88,0,.6,0,1.2.11,2,.19V597.1H677.76V586.63H780.11Z" transform="translate(-677.65 -482.57)"/>
							<path d="M891.55,548.66l8.62,3.42v5.5c-10.67,3.21-17.66-3.65-16.28-16.51,1.61,0,3.3.06,5,0,3.73-.16,5.7-1.91,6-5.29.36-3.62-1.51-6.72-5-7.2-3-.42-6.16-.09-9.69-.09v29.23h-6.92V522.27c6.1,0,12.22-.47,18.22.13s10,5.71,10.48,11.52c.5,6-2.58,10.53-8.71,12.76-.45.16-.88.37-1.32.56Z" transform="translate(-677.65 -482.57)"/>
							<path d="M1248.1,521.12a18.59,18.59,0,0,1,18.65,18.77,18.74,18.74,0,0,1-37.47-.14A18.65,18.65,0,0,1,1248.1,521.12Zm0,6.55a12.05,12.05,0,0,0-11.81,12c0,6.49,5.37,12.2,11.62,12.25s11.79-5.61,11.88-12.07S1254.45,527.69,1248.13,527.67Z" transform="translate(-677.65 -482.57)"/>
							<path d="M946,537h15.76v6.41H946.36c-1.66,6.67-.4,8.37,5.79,8.37h13v5.86c-6.91,0-14,.39-21-.16-3.74-.29-5.59-3.75-5.7-7.37-.22-6.7-.28-13.43,0-20.13.21-4.52,2.88-7.41,7.25-7.66,6.44-.36,12.91-.09,19.55-.09v6.32H953C945.75,528.52,945.24,529.08,946,537Z" transform="translate(-677.65 -482.57)"/>
							<path d="M1023.47,557.23c-5.61,1.07-9.47.5-12.12-4-4.41,3.87-9.28,5.74-14.93,4.94-6-.85-9.41-3.63-10.48-8.56s1-9.4,6-12.53c.52-.33,1-.63,1.77-1.05-2.46-4-3.88-8.16-.26-12,3.26-3.45,7.54-3.68,11.83-2.37,3.61,1.11,5.33,3.8,5.34,7.85-2.67.28-5.28,1.68-6.86-2.14-.33-.81-3.36-1.39-4.42-.8s-1.9,3-1.55,4.24c.51,1.79,2.05,3.36,3.39,4.8,2.8,3,5.76,5.87,9,9.19,2.32-3.46,4-8,9.76-5.18-1.64,2.87-3.39,5.93-5.52,9.63Zm-17-7.42-9-9.81c-3.35,1.45-6.18,3.54-5.67,7.15a8.31,8.31,0,0,0,4.15,5.42C1000,554.42,1003.64,552.62,1006.5,549.81Z" transform="translate(-677.65 -482.57)"/>
							<path d="M1112.57,547.12V540.7c1.71,0,3.27,0,4.84,0,4.08-.09,6.22-2,6.41-5.7a6.38,6.38,0,0,0-6.17-7c-2.71-.16-5.43,0-8.55,0v29.5h-6.85V522c6.24,0,12.48-.46,18.61.13,5.84.56,10.17,6.59,10.08,12.61a11.69,11.69,0,0,1-10.3,11.87C1118.1,547,1115.49,547,1112.57,547.12Z" transform="translate(-677.65 -482.57)"/>
							<path d="M1163.46,557.71c-2.63,0-4.51.14-6.36-.06-.81-.09-2.06-.75-2.21-1.36-.8-3.29-3.14-3.3-5.76-3.16-2.11.12-4.24.09-6.36,0-3.37-.13-6.37.24-6.69,4.43h-6.24c-.58-5.45,2.46-9.37,7.93-10.21a58.22,58.22,0,0,1,6.33-.47c2.08-.07,4.15,0,6.85,0l-5.07-12.56c-2.53,6-3.54,12.65-11.77,10.3,3.17-7.21,6.34-14.6,9.68-21.91,1-2.3,3.15-2.43,4.14-.23C1153.12,534,1158.14,545.61,1163.46,557.71Z" transform="translate(-677.65 -482.57)"/>
							<path d="M855.56,547.27c-.38-1.22-.6-2.16-.95-3.06-1.09-2.75-2.22-5.48-3.83-9.41-1.51,3.56-2,6.71-3.82,8.41s-5,1.86-8.55,3c3.78-8.56,7-16.07,10.42-23.47,1.09-2.35,3-2,4.25.65,2.45,5.31,4.74,10.68,7.09,16l8.1,18.5c-2.54,0-4.52.11-6.48-.05-.73-.06-1.94-.66-2-1.16-.68-4-3.64-3.34-6.34-3.33-2,0-4,.07-6,0-3.32-.14-6,.64-6.54,4.37h-6.51c.41-6.56,3.29-9.61,9.68-10.28,1.86-.2,3.74-.16,5.61-.19S853.39,547.27,855.56,547.27Z" transform="translate(-677.65 -482.57)"/>
							<path d="M1195.05,526.11l-4.16,4.48c-8.43-4.14-13.27-3.59-17.35,1.86a12.12,12.12,0,0,0,.93,15.74c4.36,4.59,9.43,4.85,16.22.57l4.34,4.69a18.22,18.22,0,0,1-25.52-.53,18.52,18.52,0,0,1,25.54-26.81Z" transform="translate(-677.65 -482.57)"/>
							<path d="M1074.5,535.91l9.08,21.8c-2.06,0-3.83.32-5.4-.09a5.54,5.54,0,0,1-3.42-2.38c-2.45-5.45-4.56-11-6.8-16.57-.46-1.12-1-2.2-1.9-4.24-2.59,6.4-4.83,11.89-7,17.39-2.54,6.32-2.53,6.32-10,5.65.33-1,.57-1.9,1-2.77,4.49-10.26,9-20.53,13.56-30.74.5-1.13,1.65-2,2.49-2.94,1,1,2.24,1.81,2.85,3,2,3.94,3.85,8,5.74,12Z" transform="translate(-677.65 -482.57)"/>
							<path d="M906.92,528.26v-6h27.22V528l-10.09.46v29.34h-7V528.26Z" transform="translate(-677.65 -482.57)"/>
							<path d="M1216.69,557.54h-7V528h-10.09v-5.91h27v5.69h-9.87Z" transform="translate(-677.65 -482.57)"/>
							<path d="M1074.61,536c-1.3-5.51,2.32-9.61,4.42-14,1-2.16,3-1,3.86,1,5,11.37,10,22.74,15.26,34.77-2.49,0-4.58.28-6.54-.12a4.51,4.51,0,0,1-2.57-2.51c-2.76-6.48-5.34-13-8.37-20.53l-3,6.17c-1.17-1.75-2.18-3.28-3.21-4.81Z" transform="translate(-677.65 -482.57)"/>
							<path d="M1038.45,522H1045v35.49h-6.58Z" transform="translate(-677.65 -482.57)"/>
							<path d="M790.94,493H780.3V482.57h10.64Z" transform="translate(-677.65 -482.57)"/>
						</svg>
