<?xml version="1.0" encoding="iso-8859-1"?>
<svg width="100%" height="75" viewBox="0 0 52 47" fill="#ffffff">
							<rect x="-0" y="-0" width="51.12" height="46.8" style="fill:none;" />
							<path d="M 41.197,8.471 41.162,8.436 v 0.035 h 0.035" fill="#00ff00" />
							<path
								d="m 3.809,32.833 c 1.607,0.385 3.179,0.806 4.787,0.911 2.55,0.175 5.346,0.385 8.141,0 1.328,-0.175 2.621,-0.42 3.948,-0.736 3.949,-1.015 8.002,-0.595 12.021,0.176 1.432,0.28 2.9,0.56 4.367,0.63 2.411,0.105 4.787,0.105 7.024,0.035 2.306,-0.105 4.577,-0.665 6.848,-1.086 v -2.625 c -0.21,0.035 -0.384,0.07 -0.594,0.105 -2.621,0.49 -5.241,1.015 -7.897,1.19 -3.32,0.21 -6.673,-0.105 -9.958,-0.735 -3.949,-0.77 -7.862,-1.19 -11.741,-0.175 C 15.234,31.958 9.783,31.783 4.297,30.348 3.215,30.068 1.921,29.823 0.629,29.683 v 2.59 c 1.083,0.105 2.201,0.315 3.18,0.56" />
							<path
								d="M 13.207031 0 C 13.137031 0.59494335 13.3125 1.2245792 13.3125 1.6445312 C 13.3125 1.7145312 13.208672 1.7151658 13.138672 1.7851562 C 13.173672 1.8901466 13.207188 1.9243065 13.242188 2.0292969 C 12.892188 2.4142585 12.543672 2.8002632 12.263672 3.1152344 C 12.333672 3.6751768 12.404453 4.1653449 12.439453 4.6542969 C 12.194453 4.7252873 11.949078 4.8304002 11.705078 4.9003906 L 12.089844 4.9003906 L 12.089844 4.9355469 C 11.949844 4.9705373 11.811875 4.9718594 11.671875 5.0058594 L 11.671875 4.9003906 C 11.636875 4.9003906 11.601406 4.9355469 11.566406 4.9355469 C 11.589519 5.1319878 11.611801 5.3014484 11.634766 5.4902344 C 11.802553 5.4612671 11.995078 5.4585937 12.158203 5.4257812 L 12.158203 5.4960938 C 12.023239 5.5300769 11.824095 5.5648362 11.652344 5.6308594 C 11.665356 5.736797 11.678309 5.8382993 11.691406 5.9453125 C 11.859779 5.9116238 12.025884 5.8793919 12.193359 5.8457031 L 12.193359 5.9492188 C 12.033414 6.0135664 11.873613 6.0792509 11.712891 6.1171875 C 11.733677 6.2854232 11.754632 6.4595592 11.775391 6.6152344 C 11.810391 6.6502248 12.474453 6.6503906 12.439453 6.6503906 C 12.439453 6.6503906 12.614438 6.9659567 12.648438 7.2109375 C 12.998342 10.360649 13.313205 12.950946 13.662109 16.101562 C 13.697109 16.276562 13.486484 16.207908 13.521484 16.382812 C 13.556484 16.557812 13.836406 19.217223 13.941406 20.582031 C 13.591502 20.687031 13.242734 20.826641 12.927734 20.931641 C 12.78783 20.546641 12.648437 20.196172 12.648438 19.951172 C 12.648438 19.881172 12.544922 19.566094 12.544922 19.496094 C 12.020922 19.636094 11.461092 19.742908 10.867188 19.882812 C 10.867188 19.147908 10.867344 18.516562 10.902344 17.851562 C 11.007344 15.856754 10.027654 14.141292 9.46875 12.146484 C 8.5958364 14.421292 7.7920482 16.627536 6.953125 18.902344 C 5.7302402 16.207536 5.0657946 13.405589 4.0878906 10.675781 C 2.8650058 14.700397 2.061387 18.798275 1.8164062 22.962891 C 1.5024446 22.997891 1.2573306 23.03125 0.94335938 23.03125 C 0.94335938 23.10125 0.94467574 23.137188 1.0136719 23.242188 C 1.2236527 23.452092 1.7802536 24.082172 1.9902344 24.326172 C 2.4451864 24.817076 3.0743484 25.168438 3.7382812 25.273438 C 3.7032908 25.273438 3.7049123 25.308594 3.6699219 25.308594 C 2.5510275 25.973498 1.5724544 26.568846 0.76953125 27.09375 L 0.76953125 27.757812 C 1.3974736 27.757812 2.0605203 27.758125 2.6894531 27.828125 C 5.1702131 28.038125 7.6521 28.632674 10.132812 29.017578 C 11.355716 29.192578 12.614987 29.36842 13.837891 29.228516 C 15.479699 29.053516 16.562205 28.773281 16.912109 28.738281 C 19.322917 28.423377 20.336929 28.003281 23.306641 27.863281 C 25.682353 27.723281 27.534192 27.687205 29.875 28.037109 C 31.971808 28.317109 35.047395 29.017891 37.283203 29.087891 C 38.541107 29.122891 41.266534 28.878342 42.523438 28.773438 C 45.843054 28.458438 47.799429 28.177092 51.119141 27.617188 L 51.119141 27.232422 C 50.595141 26.987422 49.54775 26.2525 49.09375 25.9375 C 49.09375 25.9375 48.953984 25.833359 48.708984 25.693359 C 48.848984 24.678455 49.6175 18.552873 49.6875 18.167969 C 49.7575 18.167969 50.525391 18.411953 50.525391 18.376953 L 50.699219 15.716797 C 45.668699 13.755989 43.362498 9.5551847 42.558594 4.0957031 C 41.75469 3.9197223 40.987342 3.7452933 40.148438 3.5703125 C 39.134534 7.2109669 38.017683 10.430757 35.921875 13.230469 C 35.536875 12.880469 34.941094 10.220511 34.871094 8.4707031 C 34.486094 8.4007127 34.033078 8.3317092 33.580078 8.2617188 C 32.845174 10.151527 32.461029 12.181364 31.203125 13.826172 C 31.238125 13.966172 31.271641 14.211875 31.306641 14.421875 C 31.726545 14.491875 32.076094 14.560859 32.496094 14.630859 C 32.356094 15.576763 32.007031 17.502987 31.832031 18.587891 C 31.412127 18.517891 30.993375 18.482266 30.609375 18.447266 C 30.435375 16.347458 30.190156 14.139886 29.910156 11.830078 L 30.050781 11.830078 L 30.015625 11.236328 L 29.910156 11.201172 L 29.769531 10.011719 L 29.595703 10.011719 L 29.070312 5.7753906 L 29.246094 5.7402344 L 29.28125 4.8300781 L 28.546875 4.9003906 L 28.546875 5.3554688 L 28.40625 5.3554688 L 28.232422 4.9003906 L 27.744141 4.9355469 L 27.673828 5.4609375 L 27.533203 5.4609375 L 27.464844 4.9707031 L 26.974609 5.0058594 L 27.009766 5.53125 L 26.835938 5.4960938 L 26.695312 5.0058594 L 26.03125 5.0742188 L 26.205078 5.8808594 L 26.380859 5.9140625 L 26.451172 9.3808594 L 25.751953 9.3105469 L 25.298828 4.9003906 L 25.4375 4.9003906 L 25.611328 4.1660156 L 24.84375 4.2011719 L 24.773438 4.8300781 L 24.634766 4.8300781 L 24.494141 4.234375 L 23.900391 4.2695312 L 23.794922 4.9003906 L 23.654297 4.9003906 L 23.585938 4.3046875 L 22.990234 4.3398438 L 22.955078 4.9707031 L 22.78125 4.9707031 L 22.642578 4.375 L 21.908203 4.4453125 L 22.117188 5.1445312 L 22.257812 5.1445312 L 22.433594 9.5566406 L 21.769531 9.6953125 L 21.419922 6.2304688 L 21.523438 6.1601562 L 21.59375 5.25 L 20.859375 5.3203125 L 20.894531 5.8105469 L 20.615234 5.8457031 L 20.580078 5.3554688 L 20.091797 5.390625 L 20.126953 5.8808594 L 19.847656 5.9140625 L 19.8125 5.4257812 L 19.322266 5.4609375 L 19.357422 5.9492188 L 19.078125 5.984375 L 19.042969 5.4960938 L 18.308594 5.5664062 L 18.519531 6.40625 L 18.658203 6.546875 L 18.693359 10.78125 L 18.519531 10.78125 L 18.554688 11.830078 L 18.414062 11.865234 L 18.378906 12.460938 L 18.519531 12.53125 L 18.658203 16.802734 C 18.658203 17.397734 18.763516 18.376641 18.728516 19.181641 C 18.448516 19.251641 18.134373 19.322578 17.855469 19.392578 C 17.575469 18.132674 17.087422 16.136484 16.982422 15.646484 C 16.947422 15.50658 16.771484 15.611172 16.771484 15.576172 C 16.38758 12.70546 15.967984 9.8013718 15.583984 6.9316406 C 15.548984 6.546679 15.619141 6.1953125 15.619141 6.1953125 C 15.619141 6.1953125 16.038203 6.0545312 16.283203 6.0195312 C 16.178203 5.4955888 15.968281 4.8656299 15.863281 4.3046875 C 15.654281 4.2696875 15.479531 4.2695312 15.269531 4.2695312 L 15.269531 4.3046875 C 15.234531 4.2696875 15.234219 4.2695312 15.199219 4.2695312 L 14.675781 4.2695312 C 14.710781 4.3745216 14.535408 3.2200252 14.570312 3.2910156 C 14.570312 3.2200252 14.849609 3.1505469 14.849609 3.1855469 C 14.849609 3.2565373 15.09375 4.2701623 15.09375 4.2011719 C 15.12875 4.2351623 15.164219 4.2695312 15.199219 4.2695312 L 15.269531 4.2695312 C 15.269531 4.02556 14.954438 3.009131 15.023438 2.8691406 C 14.570438 2.5551694 14.117109 2.2409087 13.662109 1.9609375 C 13.662109 1.8569471 13.697266 1.7495216 13.697266 1.6445312 C 13.662266 1.6445312 13.626797 1.6446875 13.591797 1.6796875 C 13.486797 1.2947259 13.4165 0.94535125 13.3125 0.52539062 C 13.4515 0.49039446 13.556953 0.45491804 13.626953 0.41992188 C 13.521953 0.38492476 13.416656 0.34960937 13.347656 0.34960938 C 13.312656 0.24561898 13.277031 0.13998656 13.207031 0 z M 13.626953 2.1699219 C 13.696953 2.239921 14.012031 2.4856415 14.082031 2.5566406 C 14.047031 2.5916406 14.08125 2.6269531 13.90625 2.6269531 C 13.80125 2.556954 13.591953 2.204921 13.626953 2.1699219 z M 14.236328 3.2519531 C 14.276109 3.247625 14.317828 3.2468594 14.361328 3.2558594 C 14.396328 3.4648402 14.431797 4.06056 14.466797 4.2695312 C 14.326797 4.2695312 14.186719 4.269375 14.011719 4.234375 C 13.976719 3.8844039 13.94125 3.6049868 13.90625 3.2910156 C 14.01125 3.3172656 14.116984 3.2649375 14.236328 3.2519531 z M 13.148438 3.2910156 C 13.156666 3.2907593 13.165078 3.2910156 13.173828 3.2910156 C 13.208828 3.6050126 13.242344 3.8850186 13.277344 4.1660156 C 13.102344 4.1660156 13.032734 4.1661719 12.927734 4.2011719 C 12.892734 3.9201749 12.857266 3.6401689 12.822266 3.3261719 C 12.953506 3.3261719 13.024878 3.2948608 13.148438 3.2910156 z M 40.462891 4.2011719 C 40.532891 4.3401529 40.986641 5.3912595 41.056641 5.53125 C 41.021641 5.56625 40.25375 6.3360938 40.21875 6.3710938 C 40.28875 5.6011603 40.357891 4.7961149 40.462891 4.2011719 z M 40.8125 4.234375 C 41.1975 4.3393656 41.546469 4.4441594 42.105469 4.6191406 C 41.755469 4.9351124 41.546578 5.1448094 41.267578 5.4257812 C 41.092578 5.0398188 40.9875 4.6543374 40.8125 4.234375 z M 42.208984 4.796875 C 42.243984 4.796875 42.035 6.6507124 42 6.7207031 C 41.965 6.6857124 41.44125 5.6015625 41.40625 5.6015625 C 41.44125 5.5315718 42.208984 4.9018657 42.208984 4.796875 z M 39.9375 5.1445312 C 39.5535 8.2952336 38.856732 12.041034 37.423828 13.335938 C 37.248828 13.510842 37.212109 13.441658 37.037109 13.476562 C 36.757205 13.476562 36.305078 13.476719 35.955078 13.511719 C 37.841886 10.956911 38.995596 8.2252432 39.9375 5.1445312 z M 42.59375 5.7050781 C 43.467665 9.8347296 45.353771 13.020576 48.603516 15.191406 C 45.738686 14.911491 43.88604 13.055142 42.453125 10.570312 C 42.104125 9.9754055 41.965469 9.4167374 42.105469 8.7167969 C 42.314469 7.7718734 42.45375 6.8249846 42.59375 5.7050781 z M 41.197266 5.7402344 C 41.337174 5.9842068 41.824688 6.8256526 41.929688 7.140625 C 41.789688 7.2456158 41.162969 7.8757996 40.917969 8.0507812 C 40.742969 7.735818 40.288281 7.1763005 40.113281 6.8613281 C 40.358281 6.6153557 40.952266 5.949216 41.197266 5.7402344 z M 23.830078 6.3339844 C 24.198551 6.3209469 24.495391 6.628022 24.529297 7.0019531 L 24.529297 7.1054688 L 24.599609 7.9101562 L 23.201172 7.9453125 L 23.166016 7.1757812 C 23.166016 7.1407828 23.130859 7.1053125 23.130859 7.0703125 C 23.165859 6.6843189 23.445922 6.3359375 23.794922 6.3359375 C 23.806953 6.3348438 23.818192 6.3344049 23.830078 6.3339844 z M 27.8125 6.9628906 C 28.149094 6.947858 28.44267 7.2227403 28.476562 7.5957031 L 28.476562 7.7011719 L 28.546875 8.4355469 L 27.289062 8.5410156 L 27.220703 7.7714844 C 27.220703 7.7364844 27.220547 7.7010156 27.185547 7.6660156 C 27.185547 7.2810216 27.429297 6.9667969 27.779297 6.9667969 C 27.790234 6.9657031 27.801642 6.9633755 27.8125 6.9628906 z M 40.113281 7.3847656 C 40.393281 7.7357383 40.602188 8.051737 40.742188 8.2617188 C 40.463188 8.6466824 40.147031 8.9605742 39.832031 9.3105469 C 39.902031 8.7505924 40.078281 7.4197656 40.113281 7.3847656 z M 20.056641 7.5605469 C 20.37063 7.5605469 20.650547 7.8414106 20.685547 8.1914062 L 20.685547 8.296875 L 20.720703 9.03125 L 19.568359 9.1015625 L 19.498047 8.3652344 C 19.498047 8.3302344 19.497891 8.2967177 19.462891 8.2617188 C 19.497891 7.9117221 19.741641 7.5955458 20.056641 7.5605469 z M 41.894531 7.6308594 C 41.894531 7.8408414 41.754391 8.8565384 41.650391 9.5214844 C 41.545391 9.3115024 41.161797 8.5752164 41.091797 8.3652344 C 41.266797 8.2252434 41.824531 7.6308594 41.894531 7.6308594 z M 33.753906 8.5410156 C 33.788906 8.5410156 34.556797 8.6466486 34.591797 8.6816406 C 34.591797 8.7166406 34.313672 8.961258 34.138672 9.03125 C 34.068672 9.03125 33.718906 8.5410156 33.753906 8.5410156 z M 40.951172 8.5410156 C 41.091172 8.96098 41.267719 9.3111383 41.511719 9.8710938 C 41.267719 10.081094 40.952203 10.396495 40.533203 10.816406 C 40.323203 10.501495 39.972099 9.9404421 39.867188 9.7304688 C 40.322099 9.1705133 40.846172 8.6810067 40.951172 8.5410156 z M 33.6875 8.8183594 C 33.725952 8.8318176 34.033203 9.171875 34.033203 9.171875 C 34.033203 9.206875 33.509766 9.591961 33.509766 9.6269531 C 33.474766 9.591961 33.683594 8.8203125 33.683594 8.8203125 C 33.683594 8.818125 33.684937 8.8174622 33.6875 8.8183594 z M 34.662109 8.8203125 C 34.697109 8.8553125 34.662109 9.6603125 34.662109 9.6953125 C 34.662109 9.6953125 34.208828 9.2050781 34.173828 9.2050781 C 34.173828 9.1700859 34.662109 8.8203125 34.662109 8.8203125 z M 34.138672 9.3105469 C 34.278672 9.4855315 34.662266 10.011719 34.697266 10.011719 C 34.732266 10.011719 34.207814 10.606094 33.962891 10.746094 C 33.787891 10.466094 33.544609 10.11625 33.474609 9.90625 C 33.509609 9.90625 34.068672 9.3105469 34.138672 9.3105469 z M 33.125 10.080078 C 33.16 10.080078 32.671875 13.511719 32.671875 13.511719 C 32.671875 13.511719 31.761406 13.511406 31.691406 13.441406 C 32.215406 12.496477 32.671 11.410007 33.125 10.080078 z M 39.763672 10.115234 C 39.867672 10.290234 40.182266 10.746875 40.322266 10.921875 C 40.042266 11.201875 39.833375 11.411719 39.484375 11.761719 C 39.589375 11.166719 39.693672 10.465234 39.763672 10.115234 z M 33.369141 10.185547 C 33.404141 10.185547 33.753906 10.851719 33.753906 10.886719 C 33.614906 11.026719 33.265625 11.376797 33.265625 11.341797 C 33.265625 11.061797 33.369141 10.255547 33.369141 10.185547 z M 34.662109 10.326172 C 34.697109 10.361172 34.626484 11.165387 34.521484 11.445312 C 34.486484 11.445312 34.173203 11.061719 34.033203 10.886719 C 34.068203 10.886719 34.627109 10.326172 34.662109 10.326172 z M 41.511719 10.326172 C 41.441719 10.816085 41.337578 11.550547 41.267578 11.935547 C 41.092578 11.760547 40.847031 11.375703 40.707031 11.095703 C 40.917031 10.885703 41.232719 10.606172 41.511719 10.326172 z M 42 10.396484 C 42.663916 11.7264 43.572918 13.161256 45.84375 14.701172 C 44.724834 14.526172 42.839551 14.245156 41.511719 14.035156 C 41.686719 12.81024 41.86 11.3764 42 10.396484 z M 34.941406 10.466797 C 35.150406 11.481728 35.326094 12.321788 35.746094 13.511719 C 35.291094 13.511719 34.976728 13.546562 34.591797 13.476562 C 34.661797 12.496631 34.801406 11.376728 34.941406 10.466797 z M 33.927734 11.025391 C 33.962734 11.165317 34.348886 11.586636 34.382812 11.726562 C 34.348886 11.726562 33.75375 12.320312 33.71875 12.320312 C 33.68375 12.180386 33.335625 11.725864 33.265625 11.585938 C 33.300625 11.585938 33.892734 11.060391 33.927734 11.025391 z M 40.498047 11.271484 C 40.777047 11.656484 41.022422 12.040938 41.232422 12.460938 C 41.162422 12.985852 41.091328 13.371797 40.986328 13.966797 C 40.776328 13.966797 39.308281 13.826016 39.238281 13.791016 C 39.308281 13.231016 39.379375 12.811555 39.484375 12.181641 C 39.764375 11.936641 40.113047 11.586484 40.498047 11.271484 z M 38.890625 11.306641 C 38.855625 11.691558 38.716484 13.335547 38.646484 13.685547 L 38.505859 13.685547 C 38.575859 13.300547 38.646797 12.355703 38.716797 11.970703 C 38.751797 11.970703 38.715625 11.936558 38.890625 11.306641 z M 33.195312 11.900391 C 33.230312 11.865391 33.580078 12.496094 33.580078 12.496094 C 33.545078 12.531094 33.019375 13.090156 32.984375 13.160156 C 32.984375 13.125156 33.195312 11.935391 33.195312 11.900391 z M 34.486328 11.900391 C 34.451328 11.970391 34.381656 13.265938 34.347656 13.335938 C 34.277656 13.195938 33.787109 12.461094 33.787109 12.496094 C 33.787109 12.496094 34.172328 12.180319 34.486328 11.900391 z M 27.710938 12.109375 C 28.083444 12.1006 28.442669 12.476485 28.476562 12.951172 C 28.476562 12.986172 28.582031 14.070313 28.582031 14.070312 L 27.115234 14.140625 C 27.115234 14.140625 27.009766 13.056484 27.009766 13.021484 C 26.974766 12.531498 27.289842 12.111328 27.673828 12.111328 C 27.685859 12.110234 27.698921 12.109658 27.710938 12.109375 z M 38.576172 12.146484 C 38.541172 12.461484 38.435391 13.440703 38.400391 13.720703 C 38.365391 13.755703 38.296719 13.720703 38.261719 13.720703 C 38.296719 13.405703 38.365391 12.881406 38.400391 12.566406 C 38.435391 12.566406 38.541172 12.146484 38.576172 12.146484 z M 20.511719 12.662109 C 20.867536 12.644678 21.178516 12.982043 21.244141 13.441406 C 21.244141 13.476406 21.349609 14.525391 21.349609 14.525391 L 19.882812 14.630859 C 19.882812 14.630859 19.812344 13.616875 19.777344 13.546875 C 19.742344 13.091875 20.021465 12.671875 20.439453 12.671875 C 20.463516 12.6675 20.487997 12.663271 20.511719 12.662109 z M 33.683594 12.705078 C 33.928594 13.125078 34.033828 13.231719 34.173828 13.511719 C 33.753898 13.511719 33.509618 13.511562 33.054688 13.476562 C 33.194618 13.301632 33.370594 13.090078 33.683594 12.705078 z M 38.072266 13.216797 C 38.077598 13.217754 38.083516 13.221719 38.087891 13.230469 C 38.087891 13.335469 38.052734 13.545391 38.052734 13.650391 C 38.017734 13.685391 37.947109 13.685547 37.912109 13.685547 C 37.912109 13.580547 37.947266 13.476094 37.947266 13.371094 C 37.977891 13.371094 38.034941 13.210098 38.072266 13.216797 z M 24.191406 13.679688 C 24.771227 13.682371 25.266016 14.186966 25.298828 14.876953 C 25.298828 14.946953 25.402175 17.047044 25.367188 17.957031 C 24.633188 18.062031 24.528609 17.922031 23.724609 17.957031 C 23.689609 17.957031 23.130703 18.0625 23.095703 18.0625 C 23.060703 17.432513 23.025391 15.22625 23.025391 15.15625 C 22.990391 14.385263 23.445219 13.755547 24.074219 13.685547 C 24.113531 13.681172 24.152752 13.679508 24.191406 13.679688 z M 35.605469 14.105469 L 35.746094 14.105469 C 35.746094 14.175469 35.710938 14.24625 35.710938 14.28125 L 35.605469 14.28125 L 35.605469 14.105469 z M 37.072266 14.210938 L 37.177734 14.210938 L 37.177734 14.421875 C 37.107734 14.421875 37.073906 14.386719 37.003906 14.386719 C 37.038906 14.316719 37.037266 14.280874 37.072266 14.210938 z M 37.876953 14.351562 C 37.911953 14.351562 37.982734 14.351719 38.052734 14.386719 C 38.052734 14.421719 38.017578 14.455391 38.017578 14.525391 C 37.947578 14.490391 37.876797 14.490078 37.841797 14.455078 C 37.841797 14.420078 37.876953 14.386562 37.876953 14.351562 z M 39.554688 14.386719 C 39.589628 14.421719 39.832188 14.386875 39.867188 14.421875 C 39.832188 14.526875 39.589531 15.121406 39.519531 15.191406 C 39.484531 15.156406 39.448906 14.770328 39.378906 14.736328 C 39.448906 14.630328 39.484688 14.491719 39.554688 14.386719 z M 35.255859 14.421875 L 35.291016 14.421875 C 35.326016 14.456875 35.326172 14.490391 35.326172 14.525391 L 35.220703 14.525391 C 35.220703 14.490391 35.220859 14.456875 35.255859 14.421875 z M 36.583984 14.490234 C 36.618984 14.525234 36.688656 14.525391 36.722656 14.525391 C 36.722656 14.596391 36.689453 14.667172 36.689453 14.701172 L 36.619141 14.701172 C 36.619141 14.631172 36.618984 14.560234 36.583984 14.490234 z M 40.287109 14.490234 C 40.497109 14.490234 40.672656 14.525391 40.847656 14.525391 C 40.777656 14.630391 40.567891 14.94625 40.462891 15.15625 C 40.392891 14.94625 40.357109 14.700234 40.287109 14.490234 z M 35.886719 14.525391 C 35.921719 14.560391 35.955234 14.561656 35.990234 14.597656 C 35.990234 14.597656 35.990078 14.630859 35.955078 14.630859 C 35.921078 14.596859 35.886562 14.596547 35.851562 14.560547 C 35.886562 14.560547 35.886719 14.560391 35.886719 14.525391 z M 37.457031 14.525391 C 37.457031 14.596391 37.492187 14.667484 37.492188 14.771484 C 37.458188 14.771484 37.423672 14.770641 37.388672 14.806641 C 37.388672 14.736641 37.388516 14.630547 37.353516 14.560547 C 37.388516 14.560547 37.422031 14.560391 37.457031 14.525391 z M 40.113281 14.560547 C 40.183281 14.736547 40.218906 15.087344 40.253906 15.402344 C 40.078906 15.402344 39.972672 15.367031 39.763672 15.332031 C 39.867672 15.157031 39.973281 14.806547 40.113281 14.560547 z M 41.197266 14.560547 C 41.371211 14.596547 41.754844 14.630859 41.964844 14.630859 C 41.824844 14.840859 41.616406 15.122031 41.441406 15.332031 C 41.371406 15.087031 41.267266 14.770547 41.197266 14.560547 z M 38.226562 14.667969 L 38.365234 14.667969 C 38.365234 14.771969 38.330078 14.877422 38.330078 14.982422 L 38.226562 14.982422 L 38.226562 14.667969 z M 32.880859 14.701172 C 33.300859 14.737172 33.509601 14.737484 33.892578 14.771484 C 33.647578 15.017484 33.510625 15.157188 33.265625 15.367188 C 33.160625 15.157188 33.055859 15.017172 32.880859 14.701172 z M 41.021484 14.701172 C 41.056484 14.912172 41.127266 15.192868 41.197266 15.507812 C 40.952266 15.507812 40.812359 15.5075 40.568359 15.4375 C 40.742359 15.1575 40.88154 14.947172 41.021484 14.701172 z M 42.349609 14.701172 C 42.524609 14.737172 42.838031 14.770641 43.082031 14.806641 C 42.942031 15.051588 42.698125 15.331537 42.453125 15.646484 C 42.418125 15.226537 42.384609 14.947172 42.349609 14.701172 z M 34.486328 14.771484 C 35.745304 14.982484 37.037282 15.1925 38.365234 15.4375 C 38.191258 16.522476 37.946484 18.41286 37.771484 19.882812 C 37.352508 19.742836 36.968117 19.601094 36.619141 19.496094 C 35.781141 19.251094 34.87171 19.007031 33.927734 18.832031 C 34.102734 17.607055 34.347328 15.75246 34.486328 14.771484 z M 39.099609 14.771484 C 39.134609 14.771484 39.099922 14.841797 39.169922 14.841797 C 39.204922 14.912797 39.238438 15.086621 39.273438 15.226562 C 39.203438 15.226562 39.064094 15.191621 38.996094 15.226562 C 39.030094 15.016621 39.030609 14.947484 39.099609 14.771484 z M 42.070312 14.841797 C 42.139312 15.227743 42.138828 15.541953 42.173828 15.751953 C 41.999828 15.751953 41.686719 15.646172 41.511719 15.576172 C 41.720719 15.366172 41.825366 15.157797 42.070312 14.841797 z M 43.46875 14.876953 C 43.71275 14.876953 43.921328 14.912266 44.236328 14.947266 C 44.026328 15.297215 43.886578 15.472266 43.642578 15.822266 C 43.572578 15.437266 43.50375 15.156953 43.46875 14.876953 z M 32.775391 15.017578 C 32.775391 15.157578 33.054844 15.541328 33.089844 15.611328 C 33.054844 15.611328 32.671719 15.927734 32.636719 15.927734 C 32.671719 15.857734 32.705391 15.157578 32.775391 15.017578 z M 34.033203 15.017578 C 34.068203 15.087578 33.927734 15.856719 33.927734 16.136719 C 33.787755 16.066719 33.474609 15.611172 33.474609 15.576172 L 34.033203 15.017578 z M 44.689453 15.017578 C 44.969453 15.052578 45.215658 15.12125 45.599609 15.15625 C 45.354658 15.50625 45.215547 15.751875 44.935547 16.171875 C 44.830547 15.716875 44.794453 15.402578 44.689453 15.017578 z M 43.1875 15.15625 C 43.2575 15.47125 43.293281 15.681094 43.363281 15.996094 C 43.118281 15.961094 42.942906 15.927422 42.628906 15.857422 C 42.873906 15.577422 42.9775 15.40125 43.1875 15.15625 z M 44.376953 15.261719 C 44.445953 15.681669 44.515781 15.9625 44.550781 16.3125 C 44.272831 16.2775 44.06125 16.241875 43.78125 16.171875 C 43.99125 15.856875 44.131953 15.611669 44.376953 15.261719 z M 45.984375 15.261719 C 46.158375 15.331719 46.648437 15.4375 46.648438 15.4375 C 46.648438 15.4375 46.332844 15.996531 46.087891 16.521484 C 46.018891 16.101531 46.019375 15.611672 45.984375 15.261719 z M 45.738281 15.472656 C 45.773281 15.962656 45.80875 16.277422 45.84375 16.732422 C 45.52875 16.627422 45.353171 16.591328 45.074219 16.486328 C 45.283219 16.136328 45.458329 15.892656 45.738281 15.472656 z M 39.169922 15.542969 C 39.624891 15.647969 39.973234 15.717109 40.533203 15.787109 C 40.218203 16.067109 40.042828 16.241172 39.798828 16.451172 C 39.588828 16.171172 39.414922 15.927938 39.169922 15.542969 z M 47.240234 15.542969 C 47.624234 15.577969 47.869107 15.611484 48.289062 15.646484 C 48.044107 15.996484 47.870156 16.171172 47.660156 16.451172 C 47.521156 16.136172 47.415234 15.927924 47.240234 15.542969 z M 46.822266 15.646484 C 46.892266 15.646484 47.067719 16.242188 47.136719 16.242188 C 47.067719 16.487142 47.032734 16.661452 46.927734 16.941406 C 46.857734 16.941406 46.298516 16.802891 46.228516 16.837891 C 46.333516 16.557891 46.683266 15.961484 46.822266 15.646484 z M 33.300781 15.751953 C 33.440781 15.961953 33.61475 16.172656 33.71875 16.347656 C 33.51075 16.522656 33.3 16.697891 33.125 16.837891 C 32.985 16.662891 32.844078 16.452344 32.705078 16.277344 C 32.879078 16.102344 33.020801 15.996953 33.300781 15.751953 z M 38.960938 15.822266 C 39.168908 16.172236 39.344531 16.382139 39.519531 16.662109 C 39.274531 16.872109 38.961797 17.186514 38.716797 17.396484 C 38.786797 16.906514 38.855938 16.487236 38.960938 15.822266 z M 48.603516 15.857422 C 49.023472 15.927422 49.3027 15.96125 49.722656 16.03125 C 49.4077 16.38125 49.163453 16.697344 48.814453 17.152344 C 48.744453 16.627344 48.673516 16.277378 48.603516 15.857422 z M 40.8125 15.962891 C 40.7425 16.522862 40.602203 17.256279 40.533203 17.78125 C 40.358203 17.46625 40.1125 17.012422 39.9375 16.732422 C 40.1475 16.522422 40.4635 16.242862 40.8125 15.962891 z M 41.40625 15.996094 C 43.013186 16.416062 44.585736 16.872969 46.263672 17.292969 C 45.984672 19.042905 45.563047 21.597017 45.248047 23.626953 C 43.781079 22.821985 42.139327 21.912546 40.568359 21.142578 C 40.847359 19.462642 41.19725 17.36103 41.40625 15.996094 z M 48.320312 15.996094 C 48.322134 15.995862 48.323125 15.995 48.324219 15.996094 C 48.358219 16.311051 48.394688 16.976172 48.429688 17.326172 C 48.359688 17.361172 48.114922 17.257969 48.044922 17.292969 C 47.939922 17.047969 47.869141 16.626953 47.869141 16.626953 C 47.869141 16.626953 48.263899 16.003279 48.320312 15.996094 z M 50.068359 16.095703 C 50.155928 16.092354 50.320978 16.171875 50.351562 16.171875 C 50.421562 16.416875 50.351094 17.922031 50.246094 17.957031 C 50.211094 17.712031 50.035156 16.346562 50.035156 16.101562 C 50.043906 16.097228 50.05585 16.096182 50.068359 16.095703 z M 49.826172 16.347656 C 49.861172 16.942656 49.897797 17.152776 49.966797 17.677734 C 49.548797 17.572734 49.302281 17.536484 48.988281 17.396484 C 49.267281 17.011526 49.477172 16.837656 49.826172 16.347656 z M 32.539062 16.576172 C 32.587695 16.563255 32.849141 16.913142 32.880859 16.976562 C 32.815721 16.976562 32.416688 17.400337 32.371094 17.449219 C 32.41416 17.368828 32.491545 17.046875 32.460938 17.046875 C 32.460938 17.011875 32.53125 16.626797 32.53125 16.591797 C 32.53125 16.581953 32.534049 16.577508 32.539062 16.576172 z M 33.787109 16.591797 C 33.752109 16.766797 33.647281 17.571094 33.613281 17.746094 C 33.579281 17.746094 33.370625 17.256875 33.265625 17.046875 C 33.405625 16.976875 33.647128 16.661797 33.787109 16.591797 z M 39.693359 16.871094 C 39.798359 17.081094 40.288203 17.781356 40.533203 18.236328 C 40.183203 18.551328 39.763906 18.831641 39.378906 19.181641 C 39.098934 18.796641 38.855859 18.447031 38.505859 17.957031 C 38.960859 17.607059 39.308387 17.221066 39.693359 16.871094 z M 33.089844 17.1875 C 33.229844 17.5375 33.370078 17.747829 33.580078 18.132812 C 33.195095 17.992829 32.845077 17.886094 32.496094 17.746094 C 32.706094 17.536094 32.844844 17.3975 33.089844 17.1875 z M 46.648438 17.501953 C 47.136399 17.606953 47.835937 17.78125 47.835938 17.78125 C 47.835938 17.78125 48.255688 18.447344 48.429688 18.902344 C 48.220688 19.077344 48.115781 19.182773 47.800781 19.427734 C 47.41682 18.797773 47.032399 18.131914 46.648438 17.501953 z M 48.150391 17.816406 C 48.499351 17.921406 48.988891 17.9925 49.337891 18.0625 C 49.162891 18.3075 48.918828 18.44625 48.673828 18.65625 C 48.498828 18.37625 48.325351 18.131406 48.150391 17.816406 z M 46.613281 18.167969 C 46.962281 18.762932 47.206521 19.146719 47.521484 19.636719 C 47.101521 20.021682 46.718359 20.406365 46.193359 20.861328 C 46.333359 19.916365 46.438281 19.147932 46.613281 18.167969 z M 38.435547 18.447266 C 38.680547 18.797239 38.891636 19.042422 39.099609 19.357422 C 38.961636 19.497422 38.540078 19.916953 38.330078 20.126953 C 38.295078 20.091953 38.226406 20.091641 38.191406 20.056641 C 38.295406 19.601641 38.365547 19.007239 38.435547 18.447266 z M 40.427734 18.65625 C 40.357734 19.07625 40.218412 19.881901 40.148438 20.546875 C 39.938438 20.161875 39.729662 19.777734 39.554688 19.427734 C 39.694662 19.322734 40.18276 18.86625 40.427734 18.65625 z M 49.162109 18.65625 C 49.093109 19.251212 48.989609 20.162304 48.849609 21.072266 C 48.604647 20.722266 48.254609 20.16215 47.974609 19.742188 C 48.254609 19.497188 48.848147 18.90125 49.162109 18.65625 z M 39.273438 19.636719 C 39.553413 20.091694 39.763837 20.476353 40.007812 20.861328 C 39.553837 20.651328 39.064484 20.442422 38.646484 20.232422 C 38.821484 20.057422 39.029438 19.846719 39.273438 19.636719 z M 9.0859375 19.707031 C 9.4349357 19.777031 9.7828168 19.812818 10.132812 19.882812 L 10.132812 20.091797 C 9.9228162 20.196797 9.712592 20.26625 9.4335938 20.40625 C 9.2595944 20.19625 9.1556244 20.057969 9.015625 19.917969 C 9.015625 19.812969 9.0509375 19.777031 9.0859375 19.707031 z M 8.5957031 19.8125 C 8.8047021 20.0575 8.9794541 20.266875 9.1894531 20.546875 C 8.8394551 20.686875 8.5962485 20.756489 8.28125 20.896484 C 8.1762505 20.616489 8.1069526 20.371797 8.0019531 20.091797 C 8.1769526 19.986797 8.3507046 19.9175 8.5957031 19.8125 z M 47.730469 19.917969 C 48.115433 20.547933 48.464645 21.10652 48.849609 21.771484 C 48.325645 22.261484 47.800839 22.752344 47.171875 23.277344 C 46.788875 22.647344 46.437734 22.051683 46.052734 21.386719 C 46.647734 20.861719 47.171469 20.442933 47.730469 19.917969 z M 7.7226562 20.267578 C 7.8276558 20.477578 7.931157 20.686488 8.0351562 20.896484 C 7.9661566 20.931484 7.8961715 20.966953 7.8261719 21.001953 C 7.7211723 20.791953 7.6518746 20.581094 7.546875 20.371094 C 7.581875 20.336094 7.6526566 20.302578 7.7226562 20.267578 z M 5.5566406 20.476562 L 5.5917969 20.511719 C 5.7657965 20.546719 5.9402347 20.547031 6.1152344 20.582031 C 6.0802344 20.652031 6.0449219 20.756172 6.0449219 20.826172 C 5.9049221 20.721172 5.7307965 20.616719 5.5917969 20.511719 C 5.5567969 20.511719 5.5566406 20.511562 5.5566406 20.476562 z M 4.5488281 20.638672 C 4.6306542 20.63604 4.7303907 20.676719 4.8222656 20.722656 C 5.2062652 20.932656 5.5556098 21.141719 5.9746094 21.386719 C 5.9046094 21.526719 5.8709375 21.701797 5.8359375 21.841797 C 5.6269377 21.771797 5.4503904 21.702969 5.2753906 21.667969 C 5.3103906 21.772969 5.3460157 21.842735 5.4160156 22.052734 C 4.4370166 22.297734 3.493624 22.506953 2.515625 22.751953 C 2.6896248 21.701954 3.5641883 20.861641 4.3671875 20.931641 C 4.3671875 20.715078 4.4436232 20.642056 4.5488281 20.638672 z M 6.953125 20.722656 C 7.1281244 20.827656 7.2667194 20.967578 7.5117188 21.142578 C 7.3017194 21.247578 7.1634372 21.281565 7.0234375 21.351562 C 6.9534378 21.141565 6.8826562 21.001172 6.8476562 20.826172 C 6.8476562 20.826172 6.918125 20.792656 6.953125 20.722656 z M 46.019531 22.017578 C 46.368531 22.612578 46.613578 23.031518 46.892578 23.521484 C 46.648578 23.731484 46.403203 23.941344 46.158203 24.152344 C 46.019203 24.082344 45.878281 23.978203 45.738281 23.908203 C 45.808281 23.277237 45.879531 22.717544 46.019531 22.017578 z M 48.673828 22.4375 C 48.533828 23.417465 48.394859 24.186691 48.255859 25.097656 C 47.940894 24.572691 47.694859 24.116953 47.380859 23.626953 C 47.799859 23.241988 48.149863 22.9275 48.673828 22.4375 z M 46.962891 23.732422 C 47.311858 24.293389 47.624453 24.748125 47.939453 25.203125 C 47.485486 24.958125 46.961155 24.642936 46.367188 24.292969 C 46.577155 24.116969 46.753891 23.942422 46.962891 23.732422 z " />
							<path d="m 36.339,14.211 c 0,0.035 -0.034,0.07 0,0 0.035,0.105 0.035,0.07 0,0" />
							<path d="m 34.662,14.456 c -0.035,-0.07 -0.035,-0.035 0,0 0,-0.07 0,-0.035 0,0" />
							<path d="m 33.51,14.281 v 0.035 z" />
							<path d="m 33.718,10.641 c -0.035,0.035 -0.035,0.07 0,0 -0.07,-0.035 -0.104,-0.035 0,0" />
							<path d="m 22.468,26.778 -0.07,-0.035 0.07,-0.035 z" />
							<g>
								<g>
									<path
										d="M 2.935,35.844 H 3.18 l -0.035,1.19 c 0,0.28 0.174,0.455 0.454,0.455 0.28,0 0.489,-0.14 0.489,-0.455 l 0.034,-1.19 h 0.245 l -0.035,1.19 c 0,0.42 -0.313,0.665 -0.733,0.665 -0.419,0 -0.734,-0.28 -0.699,-0.7 z" />
									<path
										d="m 5.031,35.984 0.245,0.035 0.664,1.295 c 0.07,0.105 0.105,0.28 0.105,0.28 v -0.28 L 6.22,36.124 6.464,36.159 6.22,38.014 5.975,37.979 5.311,36.684 c -0.07,-0.105 -0.105,-0.28 -0.105,-0.28 0,0 0,0.175 -0.035,0.28 l -0.175,1.19 -0.244,-0.035 z" />
									<path d="M 6.775,38.072 6.957,36.226 7.201,36.25 7.019,38.096 Z" />
									<path
										d="m 8.246,36.579 c 0,0 -0.07,0.175 -0.105,0.245 l -0.244,0.56 0.559,0.035 -0.175,-0.595 c 0,-0.07 -0.035,-0.245 -0.035,-0.245 z m -0.14,-0.7 c 0.175,0 0.21,0.175 0.315,0.21 0.07,0 0.105,-0.105 0.105,-0.175 h 0.175 c 0,0.21 -0.105,0.315 -0.28,0.315 -0.175,0 -0.21,-0.175 -0.315,-0.21 -0.07,0 -0.105,0.07 -0.105,0.175 H 7.827 c 0.035,-0.245 0.105,-0.35 0.279,-0.315 m 0.42,1.82 -0.699,-0.035 -0.21,0.525 h -0.28 l 0.769,-1.82 h 0.28 l 0.559,1.89 H 8.666 Z" />
									<path
										d="m 10.098,38.049 c 0.384,0 0.699,-0.315 0.699,-0.735 0,-0.42 -0.315,-0.7 -0.699,-0.7 -0.385,0 -0.698,0.315 -0.698,0.7 0.034,0.42 0.348,0.735 0.698,0.735 m 0,-1.68 c 0.524,0 0.944,0.42 0.944,0.945 0,0.56 -0.42,0.98 -0.944,0.98 -0.525,0 -0.943,-0.42 -0.943,-0.98 0,-0.525 0.418,-0.945 0.943,-0.945" />
									<path
										d="m 12.788,37.909 c 0.42,-0.035 0.664,-0.315 0.629,-0.77 -0.034,-0.455 -0.349,-0.665 -0.734,-0.63 l -0.349,0.035 0.14,1.4 z m -0.733,-1.575 0.628,-0.07 c 0.56,-0.035 0.979,0.245 1.014,0.84 0.07,0.595 -0.28,0.945 -0.839,1.015 l -0.629,0.07 z" />
									<path
										d="m 14.536,36.334 c 0,0 -0.035,0.175 -0.035,0.28 l -0.14,0.595 0.559,-0.07 -0.279,-0.56 c -0.035,-0.07 -0.105,-0.245 -0.105,-0.245 z m 0.488,1.015 -0.698,0.105 -0.105,0.56 -0.279,0.035 0.419,-1.925 0.28,-0.035 0.908,1.75 -0.28,0.035 z" />
									<path
										d="m 15.758,37.349 c 0,0 0.21,0.175 0.49,0.14 0.175,-0.035 0.314,-0.14 0.279,-0.315 -0.069,-0.385 -0.943,-0.175 -1.013,-0.735 -0.035,-0.28 0.175,-0.56 0.524,-0.595 0.35,-0.07 0.559,0.105 0.559,0.105 l -0.07,0.245 c 0,0 -0.209,-0.14 -0.419,-0.105 -0.21,0.035 -0.315,0.175 -0.28,0.315 0.07,0.385 0.944,0.14 1.014,0.735 0.035,0.28 -0.14,0.56 -0.489,0.595 -0.385,0.07 -0.629,-0.14 -0.629,-0.14 z" />
									<path
										d="m 17.575,35.599 1.014,-0.175 0.035,0.245 -0.734,0.105 0.105,0.595 0.629,-0.105 0.035,0.245 -0.629,0.105 0.104,0.77 -0.244,0.035 z" />
									<path
										d="m 19.707,36.159 c 0.21,-0.035 0.315,-0.175 0.28,-0.385 -0.035,-0.14 -0.07,-0.21 -0.175,-0.28 -0.07,-0.035 -0.105,-0.035 -0.244,0 l -0.28,0.035 0.105,0.665 z m -0.734,-0.77 0.56,-0.07 c 0.209,-0.035 0.279,-0.035 0.349,0 0.21,0.035 0.349,0.21 0.384,0.455 0.035,0.245 -0.07,0.455 -0.244,0.56 0,0 0.035,0.035 0.07,0.07 l 0.488,0.665 -0.279,0.035 -0.489,-0.665 -0.384,0.07 0.105,0.735 -0.245,0.035 z" />
									<path
										d="m 20.65,35.144 1.084,-0.14 0.035,0.21 -0.804,0.105 0.035,0.595 0.664,-0.105 0.035,0.245 -0.664,0.07 0.07,0.595 0.873,-0.105 v 0.245 l -1.083,0.105 z" />
									<path
										d="m 23.026,34.864 c 0.455,-0.035 0.699,0.175 0.699,0.175 l -0.105,0.21 c 0,0 -0.209,-0.175 -0.524,-0.14 -0.418,0.035 -0.663,0.385 -0.628,0.77 0.035,0.42 0.349,0.7 0.733,0.665 0.314,-0.035 0.489,-0.28 0.489,-0.28 l -0.035,-0.28 -0.314,0.035 -0.035,-0.21 0.524,-0.035 0.07,0.945 -0.245,0.035 v -0.175 c 0,0 -0.174,0.245 -0.559,0.28 -0.488,0.035 -0.943,-0.315 -0.978,-0.875 0,-0.63 0.35,-1.085 0.908,-1.12" />
									<path
										d="m 24.215,34.829 h 0.244 l 0.035,1.19 c 0,0.28 0.21,0.455 0.49,0.42 0.279,0 0.454,-0.175 0.454,-0.49 l -0.035,-1.19 h 0.244 l 0.035,1.19 c 0,0.42 -0.279,0.7 -0.698,0.7 -0.42,0 -0.734,-0.245 -0.769,-0.665 z" />
									<path
										d="m 26.276,34.759 1.049,0.035 v 0.245 l -0.804,-0.035 -0.035,0.595 h 0.664 v 0.245 l -0.664,-0.035 v 0.595 l 0.839,0.035 v 0.21 l -1.119,-0.035 z" />
									<path
										d="m 27.709,36.264 c 0,0 0.175,0.21 0.454,0.245 0.174,0 0.314,-0.07 0.349,-0.245 0.035,-0.385 -0.873,-0.385 -0.803,-0.945 0.035,-0.28 0.28,-0.49 0.628,-0.455 0.35,0.035 0.525,0.245 0.525,0.245 l -0.14,0.21 c 0,0 -0.14,-0.175 -0.385,-0.21 -0.208,0 -0.348,0.105 -0.348,0.245 -0.035,0.385 0.873,0.35 0.803,0.945 -0.035,0.28 -0.28,0.49 -0.629,0.455 -0.384,-0.035 -0.594,-0.28 -0.594,-0.28 z" />
									<path d="m 29.102,36.768 0.226,-1.841 0.243,0.03 -0.226,1.841 z" />
									<path
										d="m 30.644,35.424 c 0,0 -0.07,0.175 -0.105,0.245 l -0.279,0.56 0.559,0.07 -0.105,-0.63 c -0.035,-0.07 -0.07,-0.245 -0.07,-0.245 z m 0.175,1.12 -0.699,-0.105 -0.245,0.49 -0.279,-0.035 0.943,-1.75 0.28,0.035 0.384,1.925 -0.279,-0.035 z" />
									<path
										d="m 31.517,36.754 c 0,0 0.175,0.245 0.42,0.28 0.174,0.035 0.349,-0.035 0.349,-0.21 0.07,-0.385 -0.839,-0.455 -0.734,-1.015 0.035,-0.28 0.315,-0.455 0.664,-0.42 0.35,0.07 0.49,0.28 0.49,0.28 l -0.14,0.21 c 0,0 -0.14,-0.175 -0.385,-0.21 -0.209,-0.035 -0.349,0.07 -0.384,0.21 -0.07,0.385 0.839,0.42 0.734,1.015 -0.035,0.28 -0.315,0.49 -0.664,0.42 -0.385,-0.07 -0.56,-0.35 -0.56,-0.35 z" />
								</g>
								<g>
									<path
										d="m 1.642,39.449 c 0,0 -0.105,0.245 -0.175,0.35 l -0.454,0.77 0.803,0.175 -0.104,-0.91 c -0.035,-0.14 -0.07,-0.385 -0.07,-0.385 z m 0.174,1.645 -1.012,-0.21 -0.42,0.7 -0.384,-0.07 1.502,-2.45 0.384,0.07 0.42,2.87 -0.385,-0.07 z" />
									<path
										d="m 3.145,39.344 0.384,0.07 -0.384,2.345 1.187,0.21 -0.07,0.316 -1.572,-0.246 z" />
									<path
										d="m 5.171,39.694 0.385,0.035 0.454,1.54 c 0.035,0.14 0.105,0.385 0.105,0.385 0,0 0.105,-0.21 0.175,-0.35 l 0.768,-1.4 0.384,0.035 -0.07,2.731 -0.384,-0.036 0.07,-1.715 c 0,-0.175 0.035,-0.385 0.035,-0.385 0,0 -0.105,0.245 -0.175,0.385 l -0.663,1.155 -0.35,-0.035 -0.384,-1.26 c -0.035,-0.14 -0.105,-0.42 -0.105,-0.42 0,0 -0.035,0.245 -0.07,0.42 l -0.315,1.68 -0.384,-0.034 z" />
									<path
										d="m 9.05,40.394 c 0,0 -0.07,0.245 -0.105,0.385 l -0.314,0.84 H 9.434 L 9.155,40.744 C 9.12,40.639 9.05,40.394 9.05,40.394 Z m 0.488,1.575 H 8.526 L 8.246,42.74 H 7.862 L 8.875,40.044 H 9.26 l 0.943,2.73 H 9.818 Z" />
									<path
										d="m 11.531,42.319 c 0.593,-0.034 0.978,-0.42 0.943,-1.085 -0.035,-0.665 -0.489,-0.98 -1.083,-0.945 l -0.489,0.035 0.14,2.031 z m -1.049,-2.31 0.909,-0.07 c 0.838,-0.07 1.397,0.385 1.467,1.26 0.07,0.875 -0.454,1.401 -1.257,1.471 l -0.909,0.07 z" />
									<path
										d="m 14.082,40.044 c 0,0 -0.035,0.245 -0.07,0.385 l -0.175,0.91 0.804,-0.105 -0.42,-0.805 c -0.034,-0.14 -0.139,-0.385 -0.139,-0.385 z m 0.699,1.505 -1.014,0.14 -0.175,0.806 -0.384,0.034 0.629,-2.8 0.384,-0.035 1.328,2.555 -0.385,0.036 z" />
									<path d="m 15.828,41.759 0.385,-0.07 -0.21,0.84 -0.279,0.035 z" />
									<path
										d="m 18.449,38.924 c 0.629,-0.105 1.049,0.175 1.049,0.175 l -0.14,0.315 c 0,0 -0.35,-0.245 -0.839,-0.14 -0.594,0.105 -0.909,0.63 -0.804,1.19 0.105,0.56 0.594,0.98 1.188,0.875 0.49,-0.105 0.769,-0.49 0.769,-0.49 l 0.245,0.245 c 0,0 -0.28,0.49 -0.944,0.595 -0.804,0.14 -1.468,-0.35 -1.607,-1.155 -0.174,-0.77 0.314,-1.47 1.083,-1.61" />
									<path
										d="m 21.559,40.954 c 0.559,-0.035 0.944,-0.56 0.909,-1.155 -0.07,-0.595 -0.524,-0.98 -1.084,-0.945 -0.559,0.035 -0.944,0.525 -0.909,1.12 0.035,0.63 0.525,1.015 1.084,0.98 m -0.245,-2.45 c 0.769,-0.07 1.433,0.49 1.503,1.26 0.069,0.805 -0.489,1.47 -1.258,1.54 -0.769,0.07 -1.432,-0.49 -1.502,-1.295 -0.07,-0.77 0.488,-1.435 1.257,-1.505" />
									<path
										d="m 23.061,38.434 h 0.42 l 0.664,1.925 c 0.035,0.14 0.105,0.385 0.105,0.385 0,0 0.069,-0.21 0.104,-0.385 l 0.665,-1.925 h 0.419 l -1.014,2.695 H 24.04 Z" />
									<path
										d="m 26.591,38.889 c 0,0 -0.07,0.245 -0.14,0.385 l -0.35,0.84 0.804,0.035 -0.245,-0.875 c 0,-0.14 -0.035,-0.385 -0.069,-0.385 z m 0.419,1.575 -1.014,-0.07 -0.314,0.77 -0.384,-0.035 1.118,-2.66 0.384,0.035 0.804,2.765 -0.384,-0.035 z" />
									<path
										d="m 29.805,41.164 c 0.595,0.07 1.049,-0.245 1.119,-0.91 0.069,-0.665 -0.28,-1.05 -0.909,-1.12 l -0.489,-0.07 -0.21,2.03 z m -0.594,-2.45 0.909,0.105 c 0.838,0.105 1.327,0.63 1.222,1.505 -0.104,0.84 -0.698,1.295 -1.502,1.19 l -0.908,-0.105 z" />
									<path
										d="m 32.776,39.484 c 0,0 -0.105,0.245 -0.14,0.385 l -0.385,0.805 0.804,0.105 -0.21,-0.875 c -0.034,-0.175 -0.069,-0.42 -0.069,-0.42 z m 0.314,1.61 -1.014,-0.105 -0.349,0.735 -0.385,-0.035 1.259,-2.59 0.384,0.035 0.663,2.8 -0.383,-0.035 z" />
									<path
										d="m 35.99,40.779 c 0.315,0.035 0.524,-0.175 0.559,-0.49 0.035,-0.315 -0.175,-0.525 -0.489,-0.56 l -0.524,-0.035 -0.07,1.05 z m -0.804,-1.435 0.979,0.07 c 0.489,0.035 0.838,0.385 0.803,0.91 -0.035,0.525 -0.419,0.84 -0.908,0.805 l -0.594,-0.035 -0.07,1.015 -0.384,-0.035 z" />
									<path d="m 37.364,42.185 0.068,-2.694 0.385,0.01 -0.068,2.694 z" />
									<path
										d="m 38.436,39.484 1.572,-0.035 v 0.315 l -1.187,0.035 0.035,0.875 0.943,-0.035 0.034,0.315 -0.977,0.035 0.035,0.875 1.257,-0.035 v 0.315 l -1.642,0.071 z" />
									<path
										d="m 41.616,41.724 c 0.593,-0.07 0.978,-0.455 0.908,-1.12 -0.07,-0.665 -0.489,-0.98 -1.083,-0.91 l -0.489,0.035 0.175,2.03 z m -1.083,-2.31 0.908,-0.07 c 0.838,-0.07 1.398,0.385 1.502,1.225 0.07,0.84 -0.419,1.4 -1.257,1.47 l -0.909,0.105 z" />
									<path
										d="m 44.097,39.379 c 0,0 -0.035,0.245 -0.035,0.385 l -0.175,0.91 0.803,-0.14 -0.418,-0.805 c -0.07,-0.105 -0.14,-0.35 -0.175,-0.35 z m 0.768,1.47 -1.013,0.175 -0.14,0.805 -0.384,0.07 0.524,-2.835 0.385,-0.07 1.397,2.52 -0.385,0.07 z" />
									<path
										d="m 46.892,40.884 c 0.594,-0.14 0.908,-0.595 0.733,-1.225 -0.139,-0.63 -0.628,-0.91 -1.222,-0.77 l -0.489,0.105 0.454,1.995 z m -1.398,-2.135 0.874,-0.21 c 0.803,-0.175 1.432,0.175 1.642,1.015 0.21,0.84 -0.21,1.435 -1.048,1.645 l -0.874,0.21 z" />
									<path
										d="m 48.15,38.119 1.538,-0.385 0.07,0.315 -1.154,0.28 0.21,0.84 0.944,-0.245 0.069,0.315 -0.943,0.245 0.244,0.84 1.223,-0.315 0.07,0.315 -1.607,0.42 z" />
								</g>
								<g>
									<path
										d="m 13.662,45.365 c 0.315,-0.035 0.49,-0.245 0.455,-0.595 -0.035,-0.315 -0.245,-0.49 -0.56,-0.455 l -0.559,0.07 0.105,1.05 z m -1.048,-1.295 0.978,-0.105 c 0.49,-0.035 0.874,0.245 0.944,0.77 0.035,0.525 -0.28,0.91 -0.769,0.945 l -0.594,0.07 0.105,1.015 -0.385,0.035 z" />
									<path
										d="m 15.933,44.98 c 0.28,-0.035 0.455,-0.245 0.42,-0.56 -0.035,-0.21 -0.14,-0.315 -0.28,-0.385 -0.07,-0.035 -0.175,-0.035 -0.384,0 l -0.42,0.07 0.14,0.945 z M 14.85,43.825 15.654,43.72 c 0.279,-0.035 0.384,-0.035 0.524,0 0.28,0.07 0.489,0.315 0.559,0.665 0.035,0.35 -0.105,0.665 -0.384,0.805 0,0 0.035,0.035 0.105,0.105 l 0.734,0.945 -0.42,0.07 -0.734,-0.98 -0.559,0.07 0.175,1.085 -0.385,0.07 z" />
									<path
										d="m 17.995,43.72 c 0,0 0,0.245 -0.035,0.385 l -0.14,0.91 0.804,-0.14 -0.455,-0.805 C 18.134,43.93 18.03,43.72 17.995,43.72 Z m 0.804,1.435 -1.014,0.175 -0.14,0.805 -0.383,0.07 0.488,-2.835 0.384,-0.07 1.434,2.485 -0.385,0.07 z" />
									<path
										d="m 20.755,42.844 c 0.629,-0.07 1.014,0.211 1.014,0.211 l -0.175,0.315 c 0,0 -0.315,-0.245 -0.804,-0.175 -0.628,0.07 -0.943,0.595 -0.908,1.155 0.07,0.63 0.558,1.015 1.118,0.945 0.454,-0.07 0.734,-0.42 0.734,-0.42 l -0.035,-0.385 -0.455,0.035 -0.035,-0.315 0.769,-0.105 0.14,1.365 -0.314,0.035 -0.035,-0.175 v -0.105 c 0,0 -0.245,0.35 -0.804,0.42 -0.734,0.07 -1.397,-0.42 -1.467,-1.26 -0.035,-0.77 0.454,-1.435 1.257,-1.541" />
									<path
										d="m 23.446,43.09 c 0,0 -0.07,0.245 -0.105,0.385 l -0.28,0.875 0.804,-0.035 -0.315,-0.84 C 23.515,43.335 23.446,43.09 23.446,43.09 Z m 0.559,1.54 -1.014,0.035 -0.244,0.805 h -0.384 l 0.873,-2.73 h 0.384 l 1.049,2.695 h -0.385 z" />
									<path
										d="m 25.088,42.704 h 0.385 l -0.07,2.381 1.222,0.035 -0.034,0.315 -1.572,-0.035 z" />
									<path
										d="m 28.129,42.81 1.572,0.105 -0.035,0.35 -1.189,-0.105 -0.07,0.84 0.979,0.07 -0.035,0.35 -0.979,-0.07 -0.035,0.875 1.224,0.07 v 0.35 l -1.642,-0.14 z" />
									<path
										d="m 32.426,43.125 c 0.664,0.07 0.944,0.455 0.944,0.455 l -0.21,0.28 c 0,0 -0.28,-0.315 -0.769,-0.35 -0.594,-0.07 -1.049,0.385 -1.084,0.945 -0.035,0.595 0.315,1.12 0.909,1.155 0.525,0.035 0.874,-0.28 0.874,-0.28 l 0.175,0.28 c 0,0 -0.42,0.385 -1.084,0.35 -0.804,-0.07 -1.327,-0.735 -1.257,-1.54 0.104,-0.805 0.733,-1.365 1.502,-1.295" />
									<path
										d="m 34.697,43.72 c 0,0 -0.07,0.245 -0.14,0.385 l -0.349,0.84 0.804,0.07 -0.245,-0.875 c 0,-0.175 -0.035,-0.42 -0.07,-0.42 z m 0.42,1.61 -1.014,-0.07 -0.315,0.77 -0.383,-0.035 1.152,-2.625 0.385,0.035 0.769,2.765 -0.385,-0.035 z" />
									<path
										d="m 37.388,43.44 c 0.664,0 0.978,0.385 0.978,0.385 l -0.209,0.28 c 0,0 -0.315,-0.315 -0.769,-0.315 -0.595,0 -1.014,0.42 -1.014,1.015 0,0.595 0.384,1.085 0.979,1.085 0.524,0 0.839,-0.35 0.839,-0.35 l 0.209,0.28 c 0,0 -0.384,0.42 -1.048,0.42 -0.804,-0.035 -1.363,-0.665 -1.363,-1.435 0,-0.805 0.594,-1.4 1.398,-1.365" />
									<path d="m 38.859,43.491 0.384,-0.013 0.091,2.729 -0.384,0.013 z" />
									<path d="m 39.903,43.44 h 0.35 l 0.175,2.345 1.223,-0.07 v 0.35 l -1.573,0.105 z" />
									<path
										d="m 41.825,43.3 0.349,-0.035 0.175,1.19 1.398,-0.21 -0.174,-1.155 0.384,-0.07 0.35,2.695 -0.35,0.035 -0.175,-1.155 -1.398,0.175 0.175,1.19 -0.385,0.035 z" />
									<path
										d="m 45.459,43.09 c 0,0 0,0.245 -0.035,0.385 l -0.14,0.91 0.804,-0.175 -0.454,-0.77 c -0.07,-0.105 -0.175,-0.35 -0.175,-0.35 z m 0.804,1.435 -1.014,0.21 -0.104,0.805 -0.385,0.07 0.42,-2.87 0.384,-0.07 1.503,2.45 -0.384,0.07 z" />
									<path
										d="m 47.346,44.455 c 0,0 0.349,0.21 0.734,0.105 0.245,-0.07 0.419,-0.245 0.349,-0.49 -0.139,-0.56 -1.397,-0.14 -1.572,-0.945 -0.104,-0.421 0.175,-0.84 0.664,-0.946 0.489,-0.105 0.804,0.07 0.804,0.07 L 48.22,42.6 c 0,0 -0.315,-0.175 -0.63,-0.071 -0.279,0.071 -0.419,0.281 -0.384,0.491 0.14,0.56 1.363,0.07 1.573,0.945 0.105,0.42 -0.14,0.805 -0.664,0.945 -0.559,0.14 -0.944,-0.14 -0.944,-0.14 z" />
								</g>
							</g>
						</svg>
