<svg width="128" height="100%" fill="#ffffff" viewBox="0 0 64 25">
							<path d="m 62.965124,7.6809257 c -0.36018,0.38946 -0.81809,0.58384 -1.37512,0.58384 -0.55669,0 -1.01777,-0.1972 -1.38289,-0.59196 -0.36478,-0.39476 -0.54751,-0.87312 -0.54751,-1.43545 0,-0.56268 0.17956,-1.03893 0.53975,-1.42769 0.35948,-0.38982 0.81738,-0.5842 1.37442,-0.5842 0.55703,0 1.01811,0.19791 1.38289,0.59196 0.36547,0.39476 0.54786,0.87383 0.54786,1.43581 0,0.56232 -0.18027,1.03857 -0.5394,1.42769 m 0.75036,-3.52002 c -0.55739,-0.56797 -1.26541,-0.85196 -2.12548,-0.85196 -0.85937,0 -1.57057,0.28681 -2.1329,0.85937 -0.56268,0.57326 -0.84349,1.26859 -0.84349,2.08492 0,0.81668 0.27834,1.50883 0.83538,2.0768 0.55668,0.56762 1.26541,0.8516 2.12478,0.8516 0.86007,0 1.57092,-0.28645 2.13325,-0.85972 0.56268,-0.57326 0.84384,-1.26823 0.84384,-2.08456 0,-0.81633 -0.27869,-1.50883 -0.83538,-2.07645 m -5.842,0.17004 c 0.51082,0 0.92463,-0.41416 0.92463,-0.92463 h -3.68229 c -0.51047,0 -0.92463,0.41416 -0.92463,0.92463 h 1.80057 v 4.75333 h 1.00613 v -4.75333 z m -4.06647,-0.92463 c -0.55139,0 -0.99765,0.44662 -0.99765,0.99765 v 2.27119 c 0,0.51399 -0.1263,0.90558 -0.37748,1.17616 -0.25117,0.27058 -0.60184,0.40569 -1.05022,0.40569 -0.44908,0 -0.80045,-0.1404 -1.05445,-0.42157 -0.254,-0.28151 -0.381,-0.68156 -0.381,-1.2012 v -2.23027 c 0,-0.55103 -0.44697,-0.99765 -0.99801,-0.99765 v 3.26884 c 0,0.81068 0.2152,1.43016 0.64523,1.85737 0.42933,0.42722 1.02024,0.641 1.77201,0.641 0.76235,0 1.35995,-0.21802 1.79246,-0.65299 0.43286,-0.43498 0.64911,-1.0668 0.64911,-1.89407 v -3.22015 m -6.16797,0.92463 c 0.51118,0 0.92499,-0.41416 0.92499,-0.92463 h -3.68265 c -0.51047,0 -0.92428,0.41416 -0.92428,0.92463 h 1.80058 v 4.75333 h 1.00542 v -4.75333 z m -4.10351,-0.92463 c -0.55139,0 -0.99765,0.44662 -0.99765,0.99765 v 4.68066 h 0.99765 v -5.67831 0 m -2.34456,0.92463 c 0.51082,0 0.92463,-0.41416 0.92463,-0.92463 h -3.68229 c -0.51047,0 -0.92428,0.41416 -0.92428,0.92463 h 1.80023 v 4.75333 h 1.00576 v -4.75333 z m -6.69149,0.55986 c 0,-0.19474 0.0825,-0.35737 0.24765,-0.48684 0.1644,-0.12982 0.39053,-0.19508 0.67698,-0.19508 0.50271,0 1.01636,0.19508 1.54129,0.58455 l 0.53516,-0.75459 c -0.59443,-0.47555 -1.28164,-0.71332 -2.06022,-0.71332 -0.56762,0 -1.03258,0.1524 -1.39524,0.45756 -0.3623,0.30621 -0.54327,0.70485 -0.54327,1.19662 0,0.49777 0.14993,0.86536 0.45049,1.10313 0.29987,0.23813 0.78,0.43815 1.43969,0.60043 0.508,0.11889 0.84878,0.2406 1.02164,0.36513 0.17287,0.12417 0.26,0.29457 0.26,0.51047 0,0.22189 -0.0907,0.39758 -0.27199,0.5281 -0.18133,0.12912 -0.4258,0.19403 -0.73413,0.19403 -0.62689,0 -1.22484,-0.24588 -1.79246,-0.73766 l -0.60008,0.71367 c 0.67592,0.60537 1.46509,0.90841 2.36855,0.90841 0.60501,0 1.09467,-0.1524 1.46791,-0.45861 0.37289,-0.30516 0.55986,-0.72073 0.55986,-1.24496 0,-0.45438 -0.14746,-0.80821 -0.44239,-1.06256 -0.29456,-0.254 -0.75565,-0.45685 -1.38288,-0.60819 -0.53552,-0.12947 -0.89324,-0.25541 -1.07457,-0.37712 -0.18168,-0.12171 -0.27199,-0.29598 -0.27199,-0.52317 m -5.63703,-1.48449 h -0.92463 v 4.69618 c 0,0.54257 0.4392,0.98142 0.98178,0.98142 v -4.03895 l 3.1309,4.03895 h 0.83538 v -4.69617 c 0,-0.54187 -0.43921,-0.98143 -0.98178,-0.98143 v 3.92606 z m -1.751546,0 c -0.551039,0 -0.998008,0.44662 -0.998008,0.99765 v 4.68066 h 0.998008 v -5.67831 0 m -6.753931,3.4932 c -2.579158,-5.94465001 -9.081911,-8.10789 -14.7217703,-5.68642 -0.279047,0.11994 -0.412044,0.44097 -0.305506,0.72566 5.8695183,-2.59891001 10.1042623,-0.12276 12.3585123,2.09233 1.038225,1.02058 2.043642,2.54529 2.477559,4.21605 1.183217,4.1306703 -1.087614,9.2642903 -4.522612,10.1028503 -0.350661,0.0959 -0.719313,0.1471 -1.101019,0.1471 -1.520825,0 -2.851856,-0.80927 -3.587045,-2.02071 -0.463197,0.76835 -1.4072303,2.11843 -3.6650083,2.4504 -0.264936,0.0385 -0.323498,0.39335 -0.08714,0.51929 1.350786,0.71825 3.0525863,1.34373 6.4262003,0.68932 6.630459,-1.79211 8.832851,-8.09025 6.727825,-13.2358703 m 1.43757,4.1659603 c -0.684036,6.3821 -5.033786,8.98525 -7.991123,9.65623 -1.389239,0.43639 -3.226153,0.49671 -4.8905583,0.0374 -3.567995,-0.89112 -6.508751,-4.34164 -6.659034,-7.44609 -0.01446,-0.14146 -0.02187,-0.28575 -0.02187,-0.4318 0,-2.18792 1.675694,-3.9835603 3.814233,-4.1747703 0.113242,-0.0169 0.228247,-0.03 0.346781,-0.0374 -0.433564,-0.78458 -1.13277,-2.27718 -0.289984,-4.40126 0.09842,-0.24871 -0.179916,-0.47625 -0.406752,-0.33478 -1.297164,0.81068 -2.689931,1.97238 -3.810001,5.22111 -1.76283003,6.6382203 2.589742,11.6945803 8.098015,12.4445903 6.4378423,0.73871 11.5622923,-3.81106 12.2858393,-9.90636 0.03563,-0.30162 -0.175683,-0.57749 -0.475544,-0.62688 M 17.34637,4.4459357 C 12.479094,-0.44073431 5.9237767,0.81127569 2.5201767,5.2435757 -1.3385073,10.493606 0.03944367,17.263066 4.9564607,20.967936 c 0.243416,0.18344 0.588433,0.13758 0.781402,-0.0995 -5.18548103,-3.81494 -5.26485603,-8.92599 -4.367036,-11.8473403 0.315736,-1.43334 1.182511,-3.06811 2.412295,-4.28978 2.862086,-2.98626 8.1089503,-3.66712 10.6912843,-1.4478 0.9652,0.77435 1.584325,1.9678 1.584325,3.308 0,0.73801 -0.188031,1.43192 -0.517173,2.03588 0.902759,0.0187 2.527653,0.17674 3.931709,1.9695603 0.164747,0.2099 0.498475,0.0832 0.489303,-0.18415 -0.05256,-1.5434003 -0.359481,-3.3468003 -2.6162,-5.9668903 m 0.348897,11.2303303 c 0.785989,-0.98213 0.984956,-2.09832 0.593019,-3.31752 -0.491066,-1.52365 -1.950155,-2.5784503 -3.62973,-2.6253703 -0.548923,-0.0166 -1.106664,0.0861 -1.653823,0.3019803 -0.623358,0.24659 -1.256594,0.3376 -1.879953,0.27234 -0.95638,-0.10019 -1.7660053,-0.5072903 -2.4062973,-1.2093203 -1.055511,-1.15852 -1.175456,-2.91324 -0.284692,-4.1723 0.719314,-1.016 2.0288253,-1.47074 3.1834673,-1.1042 1.171928,0.37042 1.883481,1.48766 1.693334,2.65536 -0.142875,0.87983 -0.931334,1.71909 -2.002014,1.59985 -0.541162,-0.0593 -0.9398,-0.34114 -1.154995,-0.81316 -0.1785053,-0.39193 -0.144639,-0.77152 0.09737,-1.0989 0.167569,-0.22613 0.399344,-0.3369 0.675922,-0.32032 0.193322,0.0116 0.373239,0.12806 0.457906,0.29563 0.06421,0.12594 0.06914,0.26705 0.01517,0.39334 0.01552,0.006 0.03387,0.0106 0.04974,0.008 0.189441,-0.0377 0.322791,-0.26988 0.285397,-0.49636 -0.04339,-0.266 -0.185208,-0.46108 -0.433211,-0.59761 -0.438856,-0.24094 -1.016,-0.13088 -1.4037033,0.26882 -0.490008,0.50412 -0.56762,1.31374 -0.189089,1.96885 0.5274033,0.91229 1.6975673,1.25977 2.7216813,0.80822 1.025878,-0.45226 1.618544,-1.50107 1.508478,-2.67124 -0.07514,-0.80468 -0.430036,-1.46967 -1.053395,-1.97802 -0.967317,-0.78846 -2.061633,-0.97437 -3.2529643,-0.5521 -1.650294,0.58385 -2.645833,2.30999 -2.367492,4.10422 0.160514,1.03822 0.676628,1.91982 1.533878,2.6193703 0.203553,0.16687 0.392642,0.34467 0.559506,0.52846 1.0685643,1.17581 1.2657663,2.95134 0.479425,4.31765 -0.77717,1.34761 -2.320573,1.98473 -3.754967,1.54905 -1.328209,-0.40252 -2.171348,-1.64253 -2.005895,-2.94852 0.08819,-0.69497 0.407811,-1.24883 0.950031,-1.64606 0.774347,-0.56762 1.800225,-0.54716 2.495197,0.0487 0.488598,0.41875 0.684742,1.08868 0.486128,1.66723 -0.174978,0.51259 -0.626181,0.83961 -1.125714,0.80857 -0.318558,-0.0187 -0.559505,-0.17886 -0.679803,-0.4505 -0.07197,-0.16404 -0.07055,-0.3309 0.0046,-0.46884 0.07232,-0.13229 0.202495,-0.2226 0.369359,-0.25612 -0.02117,-0.0868 -0.121356,-0.15628 -0.229659,-0.16086 -0.248708,-0.012 -0.422627,0.0931 -0.560916,0.33796 -0.202848,0.35877 -0.1143,0.84137 0.215194,1.17369 0.465667,0.47025 1.237192,0.52811 1.835503,0.13829 0.6858,-0.44873 0.994481,-1.3081 0.76835,-2.1403 -0.269875,-0.9899 -1.172986,-1.67746 -2.2479,-1.71062 -0.03069,-7.1e-4 -0.06174,-10e-4 -0.09278,-10e-4 -0.737305,0 -1.389239,0.27551 -1.938161,0.81844 -0.857603,0.84878 -1.116894,2.19957 -0.64523,3.36162 0.649464,1.59914 2.416528,2.49343 4.111625,2.08139 1.545519,-0.37712 2.5569333,-1.37548 3.0053143,-2.96757 0.04198,-0.15205 0.07091,-0.30868 0.101247,-0.47448 0.03175,-0.17004 0.06385,-0.34537 0.112536,-0.51965 0.452967,-1.6196 1.91135,-2.75131 3.54577,-2.75131 l 0.03845,3.5e-4 c 0.341841,-0.008 0.712964,0.0536 1.102078,0.18592 1.38818,0.47307 2.29235,1.83374 2.15018,3.23497 -0.0829,0.81633 -0.445205,1.4739 -1.076325,1.95368 -0.791633,0.60219 -1.868664,0.67522 -2.680406,0.18168 -0.766938,-0.46672 -1.145469,-1.32962 -0.941563,-2.14771 0.216252,-0.86607 0.9652,-1.24813 1.594908,-1.17828 0.458964,0.0508 0.838553,0.37995 0.923572,0.7994 0.05786,0.28645 -0.02434,0.53763 -0.231775,0.70732 -0.110772,0.0907 -0.243769,0.13264 -0.375708,0.11747 -0.125236,-0.0141 -0.240947,-0.0776 -0.329142,-0.18027 -0.02222,0.0261 -0.04022,0.0536 -0.04833,0.0759 -0.03986,0.1076 0.02787,0.26952 0.154869,0.36865 0.174625,0.13723 0.371475,0.1778 0.600428,0.12489 0.43815,-0.1016 0.77858,-0.53728 0.792339,-1.01248 0.01517,-0.54292 -0.198967,-0.96343 -0.654756,-1.28375 -0.62618,-0.43992 -1.486958,-0.42052 -2.142067,0.049 -0.810683,0.58032 -1.140177,1.63195 -0.821266,2.61585 0.404636,1.24601 1.679222,2.02636 3.028244,1.85526 0.842434,-0.10725 1.533173,-0.49142 2.05352,-1.1423 m 10.476793,-1.09043 v -2.52942 h 1.40723 c 0.45685,0 0.81703,0.10619 1.08126,0.31891 0.26388,0.21308 0.39582,0.52458 0.39582,0.93416 v 0.0236 c 0,0.35454 -0.12594,0.65229 -0.37818,0.89253 -0.25223,0.2406 -0.60713,0.36019 -1.06397,0.36019 z m -1.820684,2.28212 c 0,1.00506 0.815622,1.82033 1.820684,1.82033 v -2.4825 h 1.38324 c 0.46496,0 0.90029,-0.061 1.30634,-0.18309 0.40569,-0.12241 0.76059,-0.30586 1.06362,-0.54998 0.30339,-0.24412 0.54187,-0.54751 0.71544,-0.91017 0.17356,-0.3623 0.26035,-0.78422 0.26035,-1.26506 v -0.0233 c 0,-0.4258 -0.073,-0.81386 -0.21873,-1.16487 -0.1464,-0.35031 -0.35454,-0.65194 -0.62688,-0.90417 -0.27199,-0.25189 -0.6029,-0.44732 -0.99272,-0.58561 -0.39017,-0.13688 -0.83361,-0.20673 -1.33032,-0.20673 H 26.35139 Z m 12.530664,-1.6436 1.01071,-2.46662 c 0.0325,-0.0797 0.14499,-0.0797 0.17745,0 l 1.01106,2.46662 z m 1.96286,-4.87045 c -1.01812,0 -1.93746,0.60819 -2.3361,1.54482 l -2.8896,6.78921 h 1.85632 l 0.75635,-1.85526 h 3.4992 l 0.75671,1.85526 h 1.90324 l -3.54612,-8.33403 v 0 m 19.36715,8.33438 h 1.82033 v -6.59659 h 0.83961 c 0.92675,0 1.67852,-0.75142 1.67852,-1.67852 h -5.7524 v 1.67852 h 1.41394 z m -6.05791,-8.27546 c -0.9084,0 -1.645,0.7366 -1.645,1.645 v 4.91667 c 0,0.9465 0.76729,1.71344 1.71415,1.71344 h 4.13773 v -1.61925 h -3.62197 c -0.23918,0 -0.43286,-0.19368 -0.43286,-0.43286 v -1.30493 h 2.83034 v -1.61925 h -2.83034 v -1.26964 c 0,-0.19227 0.15522,-0.34714 0.34714,-0.34714 h 3.70769 v -1.68204 h -4.20688 m -5.98346,8.41728 c 0.75671,0 1.4284,-0.12841 2.01542,-0.38418 0.58702,-0.25611 1.09361,-0.5655 1.51941,-0.92816 v -3.2706 c 0,-0.17815 -0.14463,-0.32314 -0.32314,-0.32314 h -1.69863 c -0.86853,0 -1.57233,0.70414 -1.57233,1.57233 h 1.72615 c 0.0589,0 0.10653,0.0476 0.10653,0.10654 v 1.08408 c -0.46566,0.33338 -1.03646,0.49989 -1.71485,0.49989 -0.37006,0 -0.70696,-0.0649 -1.01,-0.19544 -0.30374,-0.13018 -0.56762,-0.31397 -0.79199,-0.55104 -0.22472,-0.23671 -0.39828,-0.51541 -0.5207,-0.83538 -0.12206,-0.31961 -0.18309,-0.66886 -0.18309,-1.04845 v -0.0236 c 0,-0.35525 0.061,-0.68897 0.18309,-1.00118 0.12242,-0.31186 0.29175,-0.5842 0.50871,-0.81739 0.2166,-0.23283 0.46884,-0.41875 0.75635,-0.55668 0.28787,-0.13864 0.59726,-0.20779 0.92816,-0.20779 0.23636,0 0.45262,0.0198 0.65017,0.0593 0.19685,0.0392 0.3803,0.0945 0.54963,0.16545 0.16969,0.0713 0.33302,0.15769 0.49071,0.26 l 0.49777,0.32455 1.12184,-1.35255 c -0.21308,-0.18168 -0.43392,-0.34325 -0.66217,-0.48507 -0.2286,-0.14181 -0.47272,-0.25999 -0.73272,-0.35489 -0.25999,-0.0945 -0.54222,-0.16722 -0.84561,-0.21837 -0.30303,-0.0512 -0.63993,-0.0769 -1.01035,-0.0769 -0.63077,0 -1.21038,0.11219 -1.73814,0.33655 -0.52775,0.22543 -0.98531,0.5327 -1.37124,0.92217 -0.38594,0.39017 -0.68792,0.84349 -0.90417,1.3596 -0.21661,0.51647 -0.32527,1.06998 -0.32527,1.66088 v 0.0236 c 0,0.61489 0.10654,1.18251 0.31927,1.7025 0.21308,0.52 0.51047,0.96908 0.89253,1.34761 0.38241,0.37818 0.83926,0.67381 1.37124,0.88653 0.53199,0.21273 1.12113,0.31927 1.76742,0.31927 m -12.96494,-8.41728 v 8.27511 h -1.82068 v -6.45443 c 0,-1.00506 0.81562,-1.82068 1.82068,-1.82068" />
						</svg>
