<?xml version="1.0" encoding="iso-8859-1"?>
<!-- Uploaded to: SVG Repo, www.svgrepo.com, Generator: SVG Repo Mixer Tools -->
<svg height="800px" width="800px" version="1.1" id="Layer_1" xmlns="http://www.w3.org/2000/svg" xmlns:xlink="http://www.w3.org/1999/xlink" 
	 viewBox="0 0 485 485" xml:space="preserve">
<g>
	<g id="XMLID_31_">
		<g>
			<path style="fill:#31C0D8;" d="M152.5,364.8v72.7h-40v-55.6c9.9-5.2,21.5-10,35-14.4C147.5,367.5,149.4,366.5,152.5,364.8z"/>
			<path style="fill:#31C0D8;" d="M372.5,381.7v55.8h-40v-72.7c3.1,1.7,5,2.7,5,2.7C351,371.8,362.6,376.6,372.5,381.7z"/>
			<path style="fill:#AFB6BB;" d="M97.5,467.5c0,5.5,4.5,10,10,10h-55c0-14,0-25,0-25s0.7-40.1,60-70.6v55.6h-5c-5.5,0-10,4.5-10,10
				V467.5z"/>
			<path style="fill:#AFB6BB;" d="M432.5,452.5c0,0,0,11,0,25h-55c5.5,0,10-4.5,10-10v-20c0-5.5-4.5-10-10-10h-5v-55.8
				C432.3,412.1,432.5,452.5,432.5,452.5z"/>
			<path style="fill:#AFB6BB;" d="M332.5,364.8v72.7h-180v-72.7c9.8-5.4,31.7-18,40-27.3c0,0,20.6,25,50,25s50-25,50-25
				C300.8,346.8,322.7,359.4,332.5,364.8z"/>
			<path style="fill:#31C0D8;" d="M387.5,447.5v20c0,5.5-4.5,10-10,10h-270c-5.5,0-10-4.5-10-10v-20c0-5.5,4.5-10,10-10h5h40h180h40
				h5C383,437.5,387.5,442,387.5,447.5z"/>
			<polygon style="fill:#FFD147;" points="282.5,19 282.5,102.5 202.5,102.5 202.5,19 202.5,7.5 282.5,7.5 			"/>
			<path style="fill:#FBB246;" d="M362.5,102.5h-80V19C321,32,351.1,63.3,362.5,102.5z"/>
			<path style="fill:#FBB246;" d="M202.5,19v83.5h-80v-0.1C133.9,63.2,164,32,202.5,19z"/>
			<path style="fill:#FFD248;" d="M387.5,142.5h-35h-220h-35c0-11,9-40,20-40h5h80h80h80h5C378.5,102.5,387.5,131.5,387.5,142.5z"/>
			<path style="fill:#EADECA;" d="M352.5,167.5c16.6,0,30,6.2,30,20c0,12.8-15.8,27.6-31.3,29.7c0.9-6.4,1.3-13,1.3-19.7V167.5z"/>
			<path style="fill:#EADECA;" d="M132.5,197.5c0,6.7,0.4,13.3,1.3,19.7c-15.5-2.1-31.3-16.9-31.3-29.7c0-13.8,13.4-20,30-20V197.5z
				"/>
			<path style="fill:#EADECA;" d="M192.5,305.7c14.6,7.6,31.4,11.8,50,11.8s35.4-4.2,50-11.8v31.8c0,0-20.6,25-50,25s-50-25-50-25
				V305.7z"/>
			<path style="fill:#EADECA;" d="M192.5,305.7c-32.1-16.6-53.3-49.4-58.7-88.5c-0.9-6.4-1.3-13-1.3-19.7v-30v-25h220v25v30
				c0,6.7-0.4,13.3-1.3,19.7c-5.4,39.1-26.6,71.9-58.7,88.5c-14.6,7.6-31.4,11.8-50,11.8S207.1,313.3,192.5,305.7z"/>
		</g>
		<g>
			<path style="fill:#231F20;" d="M375.935,375.033c-10.498-5.408-22.442-10.275-35.512-14.472c-0.767-0.409-2.272-1.216-4.303-2.33
				c-16.668-9.184-29.807-17.867-36.12-23.803v-24.286c30.385-17.372,51.163-48.543,57.804-86.695
				C375.017,218.518,390,202.361,390,187.5c0-15.043-11.308-25.026-30-27.094V150h35v-7.5c0-9.655-8.382-46.807-27.002-47.469
				C355.397,57.703,326.775,27.87,290,13.748V0h-95v13.748c-36.824,14.137-65.464,43.973-78.033,81.285
				C98.372,95.74,90,132.851,90,142.5v7.5h35v10.406c-18.692,2.068-30,12.051-30,27.094c0,14.861,14.983,31.019,32.196,35.948
				c6.647,38.167,27.429,69.335,57.804,86.696v24.285c-6.312,5.936-19.45,14.618-36.106,23.795c-2.06,1.13-3.577,1.943-4.338,2.349
				c-13.408,4.401-25.363,9.341-35.485,14.658C46.5,407.413,45.034,450.549,45.002,452.37L45,485h395v-32.537
				C439.991,450.626,439.051,407.119,375.935,375.033z M365,386.345V430h-25v-53.782C349.011,379.276,357.38,382.666,365,386.345z
				 M160,369.204c9.754-5.509,23.203-13.621,32.241-21.169C200.885,356.174,219.023,370,242.5,370s41.615-13.826,50.259-21.966
				c9.035,7.546,22.48,15.656,32.241,21.169V430H160V369.204z M242.5,325c15.079,0,29.324-2.595,42.5-7.701v17.312
				C279.87,339.974,263.613,355,242.5,355c-20.977,0-37.346-15.055-42.5-20.404v-17.298C213.182,322.406,227.424,325,242.5,325z
				 M375,187.5c0,6.126-6.627,14.467-15.266,19.07c0.165-2.964,0.266-31.088,0.266-31.088C373.367,177.356,375,184.268,375,187.5z
				 M352.045,95H290V29.958C318.457,42.537,340.807,65.964,352.045,95z M210,15h65v80h-65V15z M195,29.956V95h-62.081
				C144.134,65.976,166.5,42.545,195,29.956z M117.669,110h249.662c3.442,1.314,9.472,14.23,11.757,25H105.912
				C108.197,124.23,114.227,111.314,117.669,110z M110,187.5c0-3.232,1.633-10.144,15-12.018c0,0,0.101,28.126,0.266,31.088
				C116.627,201.966,110,193.626,110,187.5z M141.227,216.156C140.413,210.366,140,204.09,140,197.5V150h205v47.5
				c0,6.59-0.413,12.866-1.23,18.674c-5.158,37.347-25.101,67.55-54.733,82.874C275.075,306.315,259.417,310,242.5,310
				c-16.918,0-32.575-3.685-46.555-10.962C166.331,283.724,146.388,253.521,141.227,216.156z M145,376.25V430h-25v-43.491
				C127.426,382.868,135.798,379.431,145,376.25z M60,452.63c0.093-2.065,2.189-31.708,45-57.922V430.2
				c-8.466,1.22-15,8.502-15,17.3v20c0,0.851,0.082,1.681,0.2,2.5H60V452.63z M107.5,470c-1.355,0-2.5-1.145-2.5-2.5v-20
				c0-1.355,1.145-2.5,2.5-2.5h270c1.355,0,2.5,1.145,2.5,2.5v20c0,1.355-1.145,2.5-2.5,2.5H107.5z M425,470h-30.2
				c0.118-0.819,0.2-1.649,0.2-2.5v-20c0-8.798-6.534-16.081-15-17.3v-35.764c43.444,26.306,44.951,56.392,45,58.136V470z"/>
			<path style="fill:#231F20;" d="M242.5,255h20v-15H250v-32.5h-15v40C235,251.642,238.358,255,242.5,255z"/>
		</g>
	</g>
</g>
</svg>